<svg version="1.1" id="Layer_1" xmlns="http://www.w3.org/2000/svg" xmlns:xlink="http://www.w3.org/1999/xlink" x="0px" y="0px"
	 width="100%" viewBox="0 0 256 256" enable-background="new 0 0 256 256" xml:space="preserve">
<path fill="#000000" opacity="1.000000" stroke="none" 
	d="
M1.000000,90.000000 
	C1.000000,60.000004 1.000000,30.500011 1.000000,1.000012 
	C86.333313,1.000008 171.666626,1.000008 256.999939,1.000004 
	C256.999969,86.333290 256.999969,171.666580 257.000000,256.999908 
	C171.666718,256.999939 86.333435,256.999939 1.000077,256.999969 
	C1.000000,201.500000 1.000000,146.000000 1.000000,90.000000 
M41.321495,38.173916 
	C40.534744,39.076511 39.747993,39.979111 38.341206,41.157181 
	C32.641392,47.212433 26.267410,53.008419 23.836208,61.160599 
	C21.545767,68.840790 19.253742,76.905777 19.227570,84.808990 
	C19.116608,118.314400 19.598392,151.829453 20.512966,185.323257 
	C20.670591,191.095810 23.386189,197.073212 26.018995,202.414352 
	C28.033075,206.500305 31.741850,209.764999 34.781975,213.322235 
	C35.668404,214.359436 36.847317,215.146652 38.146732,216.645660 
	C39.417011,217.801575 40.687294,218.957489 42.221596,220.730072 
	C48.427971,225.179779 53.181423,231.357925 60.899109,234.081451 
	C70.564453,237.492355 80.297386,239.057480 90.458107,239.027634 
	C117.951584,238.946869 145.454941,239.420761 172.934708,238.801819 
	C184.687698,238.537109 196.711655,237.264801 206.137451,228.410812 
	C211.532227,223.343292 217.969070,219.198166 222.571030,213.529114 
	C226.710327,208.429993 231.824142,204.070740 234.123459,197.141632 
	C237.403641,187.256546 239.055450,177.404800 239.025986,167.090012 
	C238.948929,140.096420 239.406570,113.093475 238.812027,86.112747 
	C238.551010,74.267662 237.631042,62.086197 228.834457,52.462692 
	C223.731476,46.880001 219.443619,40.391029 213.717941,35.586140 
	C208.478577,31.189367 204.110901,25.446405 196.842239,23.433699 
	C187.404617,20.820396 177.973389,18.937794 168.140442,18.969511 
	C140.813629,19.057655 113.485832,18.912514 86.159760,19.078314 
	C80.991615,19.109673 75.749535,19.761616 70.683121,20.810791 
	C62.666664,22.470879 55.097816,25.335228 49.107857,31.346045 
	C46.807091,33.654827 44.300194,35.758186 41.321495,38.173916 
z"/>
<path fill="#C96DB4" opacity="1.000000" stroke="none" 
	d="
M37.892166,216.048462 
	C36.847317,215.146652 35.668404,214.359436 34.781975,213.322235 
	C31.741850,209.764999 28.033075,206.500305 26.018995,202.414352 
	C23.386189,197.073212 20.670591,191.095810 20.512966,185.323257 
	C19.598392,151.829453 19.116608,118.314400 19.227570,84.808990 
	C19.253742,76.905777 21.545767,68.840790 23.836208,61.160599 
	C26.267410,53.008419 32.641392,47.212433 38.674793,41.403534 
	C40.019730,42.367092 41.060482,43.681641 42.034168,43.633717 
	C43.010345,43.585670 43.919609,42.178196 44.858204,41.366543 
	C43.867878,40.229412 42.877548,39.092281 41.887222,37.955151 
	C44.300194,35.758186 46.807091,33.654827 49.107857,31.346045 
	C55.097816,25.335228 62.666664,22.470879 70.683121,20.810791 
	C75.749535,19.761616 80.991615,19.109673 86.159760,19.078314 
	C113.485832,18.912514 140.813629,19.057655 168.140442,18.969511 
	C177.973389,18.937794 187.404617,20.820396 196.842239,23.433699 
	C204.110901,25.446405 208.478577,31.189367 213.717941,35.586140 
	C219.443619,40.391029 223.731476,46.880001 228.834457,52.462692 
	C237.631042,62.086197 238.551010,74.267662 238.812027,86.112747 
	C239.406570,113.093475 238.948929,140.096420 239.025986,167.090012 
	C239.055450,177.404800 237.403641,187.256546 234.123459,197.141632 
	C231.824142,204.070740 226.710327,208.429993 222.571030,213.529114 
	C217.969070,219.198166 211.532227,223.343292 206.137451,228.410812 
	C196.711655,237.264801 184.687698,238.537109 172.934708,238.801819 
	C145.454941,239.420761 117.951584,238.946869 90.458107,239.027634 
	C80.297386,239.057480 70.564453,237.492355 60.899109,234.081451 
	C53.181423,231.357925 48.427971,225.179779 42.160679,220.071762 
	C42.394161,217.859192 42.688560,216.304932 42.982964,214.750671 
	C41.286034,215.183273 39.589100,215.615860 37.892166,216.048462 
M41.608337,175.332611 
	C41.663563,175.713348 41.718788,176.094086 41.774014,176.474823 
	C42.182644,175.982803 42.591274,175.490799 43.544891,174.977295 
	C43.726646,174.973190 43.908401,174.969101 44.838089,174.536636 
	C44.890678,144.719315 44.949333,114.902000 44.957813,85.084679 
	C44.958008,84.401344 44.391178,83.717850 43.300900,83.222321 
	C42.867226,85.042931 42.060627,86.862511 42.055645,88.684296 
	C41.977005,117.455620 42.001362,146.227219 41.608337,175.332611 
M83.464294,44.836521 
	C113.277954,44.889374 143.091614,44.948303 172.905289,44.957100 
	C173.591782,44.957302 174.278442,44.391655 174.777740,43.301777 
	C173.620895,42.868820 172.464996,42.060734 171.307068,42.057823 
	C143.165543,41.987000 115.023666,41.974476 86.882439,42.090065 
	C85.597153,42.095345 84.317169,43.393482 83.464294,44.836521 
M22.025047,79.237823 
	C21.925869,78.364967 21.826689,77.492111 21.727510,76.619263 
	C21.574673,76.639908 21.421837,76.660553 21.269001,76.681198 
	C21.269001,111.529190 21.269001,146.377167 21.269001,181.225159 
	C21.439150,181.235977 21.609299,181.246796 21.779448,181.257614 
	C21.914606,180.168076 22.049765,179.078522 22.925142,177.732590 
	C23.282940,176.699371 23.951445,175.666733 23.953354,174.632858 
	C24.009377,144.281113 24.019632,113.929192 23.922642,83.577667 
	C23.918837,82.386940 22.789152,81.199814 22.025047,79.237823 
M235.974716,178.762253 
	C236.073746,179.635193 236.172760,180.508133 236.271790,181.381088 
	C236.424881,181.360458 236.577988,181.339828 236.731079,181.319214 
	C236.731079,146.471237 236.731079,111.623276 236.731079,76.775307 
	C236.560852,76.764465 236.390625,76.753616 236.220383,76.742775 
	C236.085587,77.832176 235.950775,78.921585 235.075546,80.267082 
	C234.717499,81.300171 234.048523,82.332695 234.046616,83.366447 
	C233.990585,113.718094 233.980362,144.069931 234.077362,174.421387 
	C234.081161,175.612427 235.210663,176.799866 235.974716,178.762253 
M178.761978,22.025055 
	C179.634674,21.925581 180.507370,21.826105 181.380081,21.726631 
	C181.359390,21.574070 181.338699,21.421507 181.318008,21.268944 
	C146.470413,21.268944 111.622826,21.268944 76.775230,21.268944 
	C76.758926,21.438454 76.742615,21.607965 76.726311,21.777475 
	C77.821213,21.913170 78.916122,22.048864 80.267288,22.924856 
	C81.300446,23.282761 82.333031,23.951462 83.366844,23.953371 
	C113.718430,24.009403 144.070206,24.019651 174.421585,23.922655 
	C175.612564,23.918852 176.799927,22.789228 178.761978,22.025055 
M177.732956,235.075607 
	C176.699875,234.717560 175.667374,234.048584 174.633636,234.046677 
	C144.281937,233.990616 113.930054,233.980377 83.578568,234.077347 
	C82.387550,234.081146 81.200127,235.210693 79.237732,235.974548 
	C78.364815,236.073639 77.491890,236.172729 76.618973,236.271820 
	C76.639603,236.425018 76.660233,236.578232 76.680862,236.731430 
	C111.528694,236.731430 146.376526,236.731430 181.224365,236.731430 
	C181.235229,236.561249 181.246094,236.391068 181.256958,236.220886 
	C180.167648,236.085938 179.078339,235.950974 177.732956,235.075607 
M58.976215,203.796585 
	C66.148148,210.640884 74.699905,214.084564 84.604614,214.091110 
	C113.913406,214.110504 143.229828,213.693726 172.528488,214.240173 
	C193.913116,214.639008 214.617371,194.044479 214.231689,172.418472 
	C213.718063,143.618408 214.093048,114.802254 214.112076,85.993027 
	C214.122574,70.102303 206.671768,58.480228 193.767075,49.831074 
	C191.110519,48.050556 189.270966,47.934143 187.190308,50.999878 
	C182.890839,48.388969 178.244308,46.998337 173.196350,46.998714 
	C143.763443,47.000919 114.329521,46.864830 84.898239,47.084301 
	C76.314392,47.148315 68.720413,51.203526 61.079792,54.009777 
	C59.773521,50.727520 59.773521,50.727520 57.440285,53.160553 
	C58.313103,53.811951 59.180820,54.459538 59.785820,55.722202 
	C54.877995,59.817276 52.783173,65.311531 50.588783,71.217606 
	C48.531391,76.754974 46.989220,82.061447 46.992558,87.902420 
	C47.008507,115.820602 46.990234,143.738815 47.022038,171.656967 
	C47.024059,173.433212 47.077862,175.287628 47.569576,176.970703 
	C49.161587,182.419937 50.576809,187.979126 52.854126,193.145981 
	C54.046581,195.851440 56.897980,197.825699 58.929375,200.708389 
	C58.952415,201.095352 58.975452,201.482330 58.519154,202.085190 
	C58.666176,202.424301 58.813198,202.763397 58.976215,203.796585 
M216.330093,214.167953 
	C215.529602,215.026779 214.729095,215.885605 213.928604,216.744415 
	C214.505707,217.109970 215.082809,217.475525 215.659927,217.841080 
	C216.099686,216.652466 216.539444,215.463852 216.330093,214.167953 
M56.175789,228.497345 
	C57.071838,228.786850 57.967884,229.076370 58.863930,229.365875 
	C58.968563,228.886276 59.073193,228.406677 59.177826,227.927078 
	C58.217270,227.927078 57.256718,227.927078 56.175789,228.497345 
M217.006210,43.690346 
	C216.832932,42.962948 216.659653,42.235546 216.486374,41.508148 
	C216.092865,41.684681 215.699356,41.861214 215.305847,42.037743 
	C215.668793,42.622696 216.031738,43.207645 217.006210,43.690346 
M29.393955,198.718414 
	C29.150141,199.317581 28.906324,199.916748 28.662504,200.515930 
	C29.103476,200.575745 29.544445,200.635574 29.985416,200.695389 
	C29.940443,200.126892 29.895470,199.558380 29.393955,198.718414 
M51.227318,198.121063 
	C51.469257,198.575790 51.711197,199.030533 51.953129,199.485260 
	C52.159531,199.320129 52.365932,199.154999 52.572346,198.989868 
	C52.244778,198.582886 51.917210,198.175903 51.227318,198.121063 
M74.089165,233.787155 
	C74.405159,233.648849 74.721161,233.510544 75.037163,233.372238 
	C74.648209,233.400543 74.259262,233.428848 74.089165,233.787155 
M24.469322,184.132614 
	C24.538815,183.751114 24.608309,183.369598 24.677803,182.988098 
	C24.512022,183.279190 24.346241,183.570282 24.469322,184.132614 
M233.212814,183.089142 
	C233.351120,183.405151 233.489410,183.721161 233.627716,184.037170 
	C233.599426,183.648224 233.571136,183.259277 233.212814,183.089142 
M233.807251,74.106514 
	C233.593277,74.151398 233.379318,74.196281 233.165359,74.241165 
	C233.242126,74.513672 233.318909,74.786179 233.395676,75.058693 
	C233.559311,74.872704 233.722946,74.686714 233.807251,74.106514 
M183.089157,233.787155 
	C183.405167,233.648849 183.721176,233.510544 184.037186,233.372253 
	C183.648239,233.400543 183.259277,233.428818 183.089157,233.787155 
M73.848694,24.694773 
	C73.924934,24.560890 74.001183,24.427006 74.077423,24.293121 
	C73.954475,24.350510 73.831528,24.407898 73.848694,24.694773 
M183.704590,24.477306 
	C183.887512,24.466635 184.070450,24.455963 184.253372,24.445286 
	C184.131149,24.390474 184.008911,24.335665 183.704590,24.477306 
M43.286819,180.143875 
	C43.402710,180.037186 43.518600,179.930496 43.634491,179.823822 
	C43.518246,179.841583 43.402000,179.859344 43.286819,180.143875 
M43.477261,78.295410 
	C43.411762,78.234680 43.346260,78.173958 43.477261,78.295410 
M78.295410,43.522728 
	C78.112411,43.533394 77.929420,43.544060 77.746422,43.554729 
	C77.868690,43.609566 77.990967,43.664406 78.295410,43.522728 
M179.704590,43.477272 
	C179.887589,43.466595 180.070572,43.455921 180.253571,43.445251 
	C180.131302,43.390423 180.009018,43.335598 179.704590,43.477272 
M24.477274,74.295395 
	C24.411800,74.234688 24.346329,74.173981 24.477274,74.295395 
M200.557022,227.511795 
	C200.557022,227.511795 200.480728,227.551041 200.557022,227.511795 
M198.488220,228.557068 
	C198.488220,228.557068 198.448914,228.480743 198.488220,228.557068 
z"/>
<path fill="#C96DB5" opacity="1.000000" stroke="none" 
	d="
M41.604359,38.064533 
	C42.877548,39.092281 43.867878,40.229412 44.858204,41.366543 
	C43.919609,42.178196 43.010345,43.585670 42.034168,43.633717 
	C41.060482,43.681641 40.019730,42.367092 38.984814,41.265800 
	C39.747993,39.979111 40.534744,39.076511 41.604359,38.064533 
z"/>
<path fill="#C96DB5" opacity="1.000000" stroke="none" 
	d="
M38.019447,216.347061 
	C39.589100,215.615860 41.286034,215.183273 42.982964,214.750671 
	C42.688560,216.304932 42.394161,217.859192 42.028667,219.763428 
	C40.687294,218.957489 39.417011,217.801575 38.019447,216.347061 
z"/>
<path fill="#000000" opacity="1.000000" stroke="none" 
	d="
M59.000168,200.130188 
	C56.897980,197.825699 54.046581,195.851440 52.854126,193.145981 
	C50.576809,187.979126 49.161587,182.419937 47.569576,176.970703 
	C47.077862,175.287628 47.024059,173.433212 47.022038,171.656967 
	C46.990234,143.738815 47.008507,115.820602 46.992558,87.902420 
	C46.989220,82.061447 48.531391,76.754974 50.588783,71.217606 
	C52.783173,65.311531 54.877995,59.817276 60.102444,55.382668 
	C60.674831,55.030910 60.913574,54.960766 61.135300,54.832703 
	C68.720413,51.203526 76.314392,47.148315 84.898239,47.084301 
	C114.329521,46.864830 143.763443,47.000919 173.196350,46.998714 
	C178.244308,46.998337 182.890839,48.388969 187.688614,51.364887 
	C188.791656,55.887165 189.898453,60.041794 189.920380,64.202133 
	C190.073059,93.181206 190.115143,122.162407 189.878922,151.140366 
	C189.843018,155.544144 188.548203,160.053848 187.169052,164.297958 
	C185.775345,168.586807 183.522629,172.593140 181.711075,176.751495 
	C181.118988,178.110550 181.136368,179.991241 180.177933,180.889969 
	C176.137314,184.678802 171.833374,188.186859 167.625778,191.797623 
	C166.870743,192.696991 165.225220,192.825943 163.977097,193.597656 
	C155.592911,198.781586 146.267075,200.798431 136.675919,200.909515 
	C112.529251,201.189178 88.377136,201.020065 64.227356,200.964539 
	C62.484333,200.960510 60.742535,200.420822 59.000168,200.130188 
M161.719513,84.261948 
	C153.375778,79.570152 145.025009,74.890785 136.690994,70.181793 
	C131.878250,67.462440 126.315063,67.612564 122.079247,69.772011 
	C110.113350,75.872284 98.686348,83.029640 87.024742,89.805191 
	C87.024742,89.805191 86.997551,89.836235 86.349602,90.144096 
	C82.401657,92.710510 78.415504,95.221710 74.545326,97.900490 
	C73.937042,98.321518 73.580307,99.498573 73.569328,100.332138 
	C73.339821,117.765640 73.551842,135.215805 72.819092,152.626587 
	C72.519928,159.735092 75.460007,163.813049 81.018654,167.004364 
	C93.981270,174.446381 106.815872,182.123047 119.946014,189.256104 
	C125.648605,192.354095 132.241180,192.269379 137.956406,189.328827 
	C147.190155,184.577957 156.018616,179.039291 165.585190,173.859131 
	C165.797394,173.550766 166.009583,173.242416 166.843292,172.666367 
	C172.781250,169.035034 178.719208,165.403702 184.911179,161.617035 
	C184.757019,160.880859 184.470673,160.149414 184.470032,159.417709 
	C184.452972,139.713577 184.471283,120.009407 184.449539,100.305283 
	C184.448700,99.538025 184.364563,98.354462 183.892136,98.067139 
	C177.677048,94.287239 171.385086,90.633743 164.852722,86.338974 
	C163.915909,85.854271 162.979095,85.369576 161.719513,84.261948 
z"/>
<path fill="#F7C4F1" opacity="1.000000" stroke="none" 
	d="
M58.964771,200.419281 
	C60.742535,200.420822 62.484333,200.960510 64.227356,200.964539 
	C88.377136,201.020065 112.529251,201.189178 136.675919,200.909515 
	C146.267075,200.798431 155.592911,198.781586 163.977097,193.597656 
	C165.225220,192.825943 166.870743,192.696991 167.625778,191.797623 
	C171.833374,188.186859 176.137314,184.678802 180.177933,180.889969 
	C181.136368,179.991241 181.118988,178.110550 181.711075,176.751495 
	C183.522629,172.593140 185.775345,168.586807 187.169052,164.297958 
	C188.548203,160.053848 189.843018,155.544144 189.878922,151.140366 
	C190.115143,122.162407 190.073059,93.181206 189.920380,64.202133 
	C189.898453,60.041794 188.791656,55.887165 188.042664,51.410942 
	C189.270966,47.934143 191.110519,48.050556 193.767075,49.831074 
	C206.671768,58.480228 214.122574,70.102303 214.112076,85.993027 
	C214.093048,114.802254 213.718063,143.618408 214.231689,172.418472 
	C214.617371,194.044479 193.913116,214.639008 172.528488,214.240173 
	C143.229828,213.693726 113.913406,214.110504 84.604614,214.091110 
	C74.699905,214.084564 66.148148,210.640884 59.440624,203.398285 
	C88.704697,203.000000 117.504356,203.000000 146.304016,203.000000 
	C146.303192,202.623093 146.302353,202.246201 146.301529,201.869293 
	C117.200516,201.869293 88.099503,201.869293 58.998489,201.869293 
	C58.975452,201.482330 58.952415,201.095352 58.964771,200.419281 
M191.998886,134.500000 
	C191.998886,108.276405 191.998886,82.052818 191.998886,55.829227 
	C191.760086,55.831585 191.521301,55.833946 191.282501,55.836308 
	C191.282501,90.349037 191.282501,124.861771 191.282501,159.374496 
	C191.521301,159.376587 191.760086,159.378662 191.998886,159.380753 
	C191.998886,151.420502 191.998886,143.460251 191.998886,134.500000 
z"/>
<path fill="#D473BF" opacity="1.000000" stroke="none" 
	d="
M80.011032,235.815674 
	C81.200127,235.210693 82.387550,234.081146 83.578568,234.077347 
	C113.930054,233.980377 144.281937,233.990616 174.633636,234.046677 
	C175.667374,234.048584 176.699875,234.717560 177.397339,235.513428 
	C144.711487,235.906052 112.361259,235.860870 80.011032,235.815674 
z"/>
<path fill="#D473BF" opacity="1.000000" stroke="none" 
	d="
M177.988983,22.184185 
	C176.799927,22.789228 175.612564,23.918852 174.421585,23.922655 
	C144.070206,24.019651 113.718430,24.009403 83.366844,23.953371 
	C82.333031,23.951462 81.300446,23.282761 80.602791,22.487022 
	C113.288521,22.094187 145.638748,22.139185 177.988983,22.184185 
z"/>
<path fill="#D473BF" opacity="1.000000" stroke="none" 
	d="
M235.815628,177.988983 
	C235.210663,176.799866 234.081161,175.612427 234.077362,174.421387 
	C233.980362,144.069931 233.990585,113.718094 234.046616,83.366447 
	C234.048523,82.332695 234.717499,81.300171 235.513519,80.602661 
	C235.906189,113.288490 235.860916,145.638733 235.815628,177.988983 
z"/>
<path fill="#D473BF" opacity="1.000000" stroke="none" 
	d="
M22.184074,80.011009 
	C22.789152,81.199814 23.918837,82.386940 23.922642,83.577667 
	C24.019632,113.929192 24.009377,144.281113 23.953354,174.632858 
	C23.951445,175.666733 23.282940,176.699371 22.487427,177.397156 
	C22.094500,144.711472 22.139288,112.361244 22.184074,80.011009 
z"/>
<path fill="#D473BF" opacity="1.000000" stroke="none" 
	d="
M83.034721,44.089462 
	C84.317169,43.393482 85.597153,42.095345 86.882439,42.090065 
	C115.023666,41.974476 143.165543,41.987000 171.307068,42.057823 
	C172.464996,42.060734 173.620895,42.868820 174.407471,43.644646 
	C143.703033,44.021500 113.368874,44.055481 83.034721,44.089462 
z"/>
<path fill="#D473BF" opacity="1.000000" stroke="none" 
	d="
M44.090157,174.964996 
	C43.908401,174.969101 43.726646,174.973190 43.022949,174.988464 
	C42.501003,174.999634 42.002102,174.998764 42.002102,174.998764 
	C42.001362,146.227219 41.977005,117.455620 42.055645,88.684296 
	C42.060627,86.862511 42.867226,85.042931 43.643940,83.592361 
	C44.021374,114.296593 44.055763,144.630798 44.090157,174.964996 
z"/>
<path fill="#000000" opacity="1.000000" stroke="none" 
	d="
M178.375488,22.104620 
	C145.638748,22.139185 113.288521,22.094187 80.474655,22.116875 
	C78.916122,22.048864 77.821213,21.913170 76.726311,21.777475 
	C76.742615,21.607965 76.758926,21.438454 76.775230,21.268944 
	C111.622826,21.268944 146.470413,21.268944 181.318008,21.268944 
	C181.338699,21.421507 181.359390,21.574070 181.380081,21.726631 
	C180.507370,21.826105 179.634674,21.925581 178.375488,22.104620 
z"/>
<path fill="#000000" opacity="1.000000" stroke="none" 
	d="
M79.624382,235.895111 
	C112.361259,235.860870 144.711487,235.906052 177.525375,235.883621 
	C179.078339,235.950974 180.167648,236.085938 181.256958,236.220886 
	C181.246094,236.391068 181.235229,236.561249 181.224365,236.731430 
	C146.376526,236.731430 111.528694,236.731430 76.680862,236.731430 
	C76.660233,236.578232 76.639603,236.425018 76.618973,236.271820 
	C77.491890,236.172729 78.364815,236.073639 79.624382,235.895111 
z"/>
<path fill="#000000" opacity="1.000000" stroke="none" 
	d="
M235.895172,178.375610 
	C235.860916,145.638733 235.906189,113.288490 235.883728,80.474625 
	C235.950775,78.921585 236.085587,77.832176 236.220383,76.742775 
	C236.390625,76.753616 236.560852,76.764465 236.731079,76.775307 
	C236.731079,111.623276 236.731079,146.471237 236.731079,181.319214 
	C236.577988,181.339828 236.424881,181.360458 236.271790,181.381088 
	C236.172760,180.508133 236.073746,179.635193 235.895172,178.375610 
z"/>
<path fill="#000000" opacity="1.000000" stroke="none" 
	d="
M22.104561,79.624420 
	C22.139288,112.361244 22.094500,144.711472 22.117317,177.525345 
	C22.049765,179.078522 21.914606,180.168076 21.779448,181.257614 
	C21.609299,181.246796 21.439150,181.235977 21.269001,181.225159 
	C21.269001,146.377167 21.269001,111.529190 21.269001,76.681198 
	C21.421837,76.660553 21.574673,76.639908 21.727510,76.619263 
	C21.826689,77.492111 21.925869,78.364967 22.104561,79.624420 
z"/>
<path fill="#000000" opacity="1.000000" stroke="none" 
	d="
M44.464123,174.750824 
	C44.055763,144.630798 44.021374,114.296593 44.037910,83.498413 
	C44.391178,83.717850 44.958008,84.401344 44.957813,85.084679 
	C44.949333,114.902000 44.890678,144.719315 44.464123,174.750824 
z"/>
<path fill="#000000" opacity="1.000000" stroke="none" 
	d="
M83.249512,44.462990 
	C113.368874,44.055481 143.703033,44.021500 174.501099,44.038734 
	C174.278442,44.391655 173.591782,44.957302 172.905289,44.957100 
	C143.091614,44.948303 113.277954,44.889374 83.249512,44.462990 
z"/>
<path fill="#000000" opacity="1.000000" stroke="none" 
	d="
M58.758823,201.977234 
	C88.099503,201.869293 117.200516,201.869293 146.301529,201.869293 
	C146.302353,202.246201 146.303192,202.623093 146.304016,203.000000 
	C117.504356,203.000000 88.704697,203.000000 59.432629,203.051254 
	C58.813198,202.763397 58.666176,202.424301 58.758823,201.977234 
z"/>
<path fill="#C96DB5" opacity="1.000000" stroke="none" 
	d="
M61.107544,54.421242 
	C60.913574,54.960766 60.674831,55.030910 60.233803,55.075130 
	C59.180820,54.459538 58.313103,53.811951 57.440285,53.160553 
	C59.773521,50.727520 59.773521,50.727520 61.107544,54.421242 
z"/>
<path fill="#C96DB5" opacity="1.000000" stroke="none" 
	d="
M216.654648,214.221603 
	C216.539444,215.463852 216.099686,216.652466 215.659927,217.841080 
	C215.082809,217.475525 214.505707,217.109970 213.928604,216.744415 
	C214.729095,215.885605 215.529602,215.026779 216.654648,214.221603 
z"/>
<path fill="#C96DB5" opacity="1.000000" stroke="none" 
	d="
M56.235977,228.212219 
	C57.256718,227.927078 58.217270,227.927078 59.177826,227.927078 
	C59.073193,228.406677 58.968563,228.886276 58.863930,229.365875 
	C57.967884,229.076370 57.071838,228.786850 56.235977,228.212219 
z"/>
<path fill="#C96DB5" opacity="1.000000" stroke="none" 
	d="
M216.700439,43.741470 
	C216.031738,43.207645 215.668793,42.622696 215.305847,42.037743 
	C215.699356,41.861214 216.092865,41.684681 216.486374,41.508148 
	C216.659653,42.235546 216.832932,42.962948 216.700439,43.741470 
z"/>
<path fill="#C96DB5" opacity="1.000000" stroke="none" 
	d="
M29.622227,198.854156 
	C29.895470,199.558380 29.940443,200.126892 29.985416,200.695404 
	C29.544445,200.635574 29.103476,200.575745 28.662506,200.515930 
	C28.906324,199.916748 29.150141,199.317581 29.622227,198.854156 
z"/>
<path fill="#C96DB5" opacity="1.000000" stroke="none" 
	d="
M51.408478,197.945007 
	C51.917210,198.175903 52.244778,198.582886 52.572342,198.989868 
	C52.365932,199.154999 52.159531,199.320129 51.953133,199.485260 
	C51.711197,199.030533 51.469257,198.575790 51.408478,197.945007 
z"/>
<path fill="#C96DB5" opacity="1.000000" stroke="none" 
	d="
M41.805222,175.165680 
	C42.002102,174.998764 42.501003,174.999634 42.750458,174.999207 
	C42.591274,175.490799 42.182644,175.982803 41.774010,176.474823 
	C41.718788,176.094086 41.663563,175.713348 41.805222,175.165680 
z"/>
<path fill="#C96DB5" opacity="1.000000" stroke="none" 
	d="
M73.979736,233.622147 
	C74.259262,233.428848 74.648209,233.400543 75.037163,233.372223 
	C74.721161,233.510544 74.405159,233.648849 73.979736,233.622147 
z"/>
<path fill="#C96DB5" opacity="1.000000" stroke="none" 
	d="
M24.324892,183.996994 
	C24.346241,183.570282 24.512022,183.279190 24.677803,182.988098 
	C24.608309,183.369598 24.538815,183.751114 24.324892,183.996994 
z"/>
<path fill="#C96DB5" opacity="1.000000" stroke="none" 
	d="
M233.377838,182.979736 
	C233.571136,183.259277 233.599426,183.648224 233.627716,184.037170 
	C233.489410,183.721161 233.351120,183.405151 233.377838,182.979736 
z"/>
<path fill="#C96DB5" opacity="1.000000" stroke="none" 
	d="
M233.846924,74.303619 
	C233.722946,74.686714 233.559311,74.872704 233.395691,75.058693 
	C233.318909,74.786179 233.242126,74.513672 233.165344,74.241165 
	C233.379318,74.196281 233.593277,74.151398 233.846924,74.303619 
z"/>
<path fill="#C96DB5" opacity="1.000000" stroke="none" 
	d="
M182.979736,233.622131 
	C183.259277,233.428818 183.648239,233.400543 184.037186,233.372253 
	C183.721176,233.510544 183.405167,233.648849 182.979736,233.622131 
z"/>
<path fill="#C96DB5" opacity="1.000000" stroke="none" 
	d="
M73.778641,24.580029 
	C73.831528,24.407898 73.954475,24.350510 74.077423,24.293121 
	C74.001183,24.427006 73.924934,24.560890 73.778641,24.580029 
z"/>
<path fill="#C96DB5" opacity="1.000000" stroke="none" 
	d="
M183.795639,24.379082 
	C184.008911,24.335665 184.131149,24.390474 184.253372,24.445290 
	C184.070450,24.455963 183.887512,24.466635 183.795639,24.379082 
z"/>
<path fill="#C96DB5" opacity="1.000000" stroke="none" 
	d="
M43.286285,180.010498 
	C43.402000,179.859344 43.518246,179.841583 43.634491,179.823822 
	C43.518600,179.930496 43.402710,180.037186 43.286285,180.010498 
z"/>
<path fill="#C96DB5" opacity="1.000000" stroke="none" 
	d="
M43.379013,78.204315 
	C43.346260,78.173958 43.411762,78.234680 43.379013,78.204315 
z"/>
<path fill="#C96DB5" opacity="1.000000" stroke="none" 
	d="
M78.204323,43.620987 
	C77.990967,43.664406 77.868690,43.609566 77.746422,43.554729 
	C77.929420,43.544060 78.112411,43.533394 78.204323,43.620987 
z"/>
<path fill="#C96DB5" opacity="1.000000" stroke="none" 
	d="
M179.795670,43.379021 
	C180.009018,43.335598 180.131302,43.390423 180.253571,43.445251 
	C180.070572,43.455921 179.887589,43.466595 179.795670,43.379021 
z"/>
<path fill="#C96DB5" opacity="1.000000" stroke="none" 
	d="
M24.379066,74.204330 
	C24.346329,74.173981 24.411800,74.234688 24.379066,74.204330 
z"/>
<path fill="#C96DB5" opacity="1.000000" stroke="none" 
	d="
M200.518875,227.531418 
	C200.480728,227.551041 200.557022,227.511795 200.518875,227.531418 
z"/>
<path fill="#C96DB5" opacity="1.000000" stroke="none" 
	d="
M198.468567,228.518906 
	C198.448914,228.480743 198.488220,228.557068 198.468567,228.518906 
z"/>
<path fill="#C96DB4" opacity="1.000000" stroke="none" 
	d="
M165.112396,86.948578 
	C171.385086,90.633743 177.677048,94.287239 183.892136,98.067139 
	C184.364563,98.354462 184.448700,99.538025 184.449539,100.305283 
	C184.471283,120.009407 184.452972,139.713577 184.470032,159.417709 
	C184.470673,160.149414 184.757019,160.880859 184.911179,161.617035 
	C178.719208,165.403702 172.781250,169.035034 166.296387,172.902344 
	C165.505737,173.369995 165.261978,173.601669 165.018234,173.833328 
	C156.018616,179.039291 147.190155,184.577957 137.956406,189.328827 
	C132.241180,192.269379 125.648605,192.354095 119.946014,189.256104 
	C106.815872,182.123047 93.981270,174.446381 81.018654,167.004364 
	C75.460007,163.813049 72.519928,159.735092 72.819092,152.626587 
	C73.551842,135.215805 73.339821,117.765640 73.569328,100.332138 
	C73.580307,99.498573 73.937042,98.321518 74.545326,97.900490 
	C78.415504,95.221710 82.401657,92.710510 86.674843,90.348427 
	C87.799065,93.381775 87.799065,93.381775 90.669998,91.508560 
	C89.344307,90.872574 88.195663,90.321526 87.047012,89.770477 
	C98.686348,83.029640 110.113350,75.872284 122.079247,69.772011 
	C126.315063,67.612564 131.878250,67.462440 136.690994,70.181793 
	C145.025009,74.890785 153.375778,79.570152 161.808365,84.923126 
	C161.233383,87.050728 160.569565,88.517143 159.905731,89.983566 
	C160.358307,90.308228 160.810898,90.632896 161.263474,90.957558 
	C162.546448,89.621231 163.829422,88.284904 165.112396,86.948578 
M169.900299,92.767570 
	C169.900299,92.767570 169.590179,92.752968 169.590179,92.752968 
	C169.590179,92.752968 169.997177,93.002129 170.098846,93.232574 
	C170.098846,93.232574 170.410110,93.246902 170.410110,93.246902 
	C170.410110,93.246902 170.002075,92.997208 169.900299,92.767570 
M141.228424,159.825943 
	C141.152435,158.065842 141.021591,156.306091 141.010345,154.545578 
	C140.971115,148.402710 140.973236,142.259567 140.953445,135.349899 
	C140.420517,134.672806 139.887573,133.995712 139.354630,133.318619 
	C138.905487,134.263260 138.081879,135.202087 138.067108,136.153458 
	C137.959778,143.067673 137.887161,149.989380 138.154022,156.895157 
	C138.195312,157.963669 140.028519,158.962921 141.228424,159.825943 
M117.761963,160.155624 
	C118.493164,159.265289 119.808502,158.409424 119.863388,157.479187 
	C120.311699,149.880798 120.594528,142.269455 120.695251,134.658981 
	C120.704727,133.943283 119.116470,133.206436 118.270012,132.479416 
	C117.883110,133.668945 117.496208,134.858490 117.015297,136.974823 
	C116.491623,144.201523 115.944977,151.426834 115.506905,158.658722 
	C115.483109,159.051666 116.367134,159.499619 117.761963,160.155624 
M182.979202,155.735657 
	C183.037537,156.256454 183.095886,156.777267 183.154236,157.298065 
	C183.308105,157.271698 183.461960,157.245331 183.615829,157.218979 
	C183.615829,139.003159 183.615829,120.787338 183.615829,101.088974 
	C183.089279,103.049400 182.961548,103.524963 182.090851,104.256744 
	C181.728287,105.283813 181.054764,106.309425 181.049942,107.338173 
	C180.981110,122.044022 180.960526,136.750641 181.081558,151.455811 
	C181.091309,152.641724 182.223221,153.818405 182.979202,155.735657 
M75.020798,104.264381 
	C74.963455,103.744133 74.906120,103.223892 74.848778,102.703644 
	C74.006378,120.584343 74.001297,138.392365 74.054588,156.200195 
	C74.055397,156.468216 74.779808,156.734070 75.911613,156.962051 
	C76.467094,156.034897 77.472557,155.117126 77.492111,154.178802 
	C77.546684,151.559631 77.039505,148.932724 77.026566,146.307526 
	C76.966972,134.219696 77.071297,122.130524 76.918732,110.044342 
	C76.897415,108.356003 75.777603,106.681526 75.020798,104.264381 
M118.744682,101.143349 
	C118.502701,101.373398 118.260727,101.603455 117.387749,102.118042 
	C116.335251,102.817169 115.282753,103.516296 113.464180,104.724289 
	C119.355354,107.731697 124.678383,110.449066 130.003815,113.858810 
	C130.615707,114.707901 131.227585,115.556999 131.839462,116.406097 
	C131.878677,114.899460 131.917892,113.392822 132.282364,111.261124 
	C136.118134,109.104485 139.953903,106.947853 144.122467,104.604118 
	C142.858749,103.610161 141.908493,102.862755 140.977905,101.369507 
	C140.739731,100.173744 140.501572,98.977982 140.263397,97.782219 
	C139.916916,97.829399 139.570435,97.876579 139.223953,97.923759 
	C139.136993,98.989555 139.050049,100.055344 138.318176,100.828384 
	C135.545349,99.163452 132.772507,97.498512 130.028244,95.056686 
	C130.222946,94.261024 130.629776,93.448677 130.568741,92.673141 
	C130.436768,90.995872 130.091873,89.331314 129.715500,87.688728 
	C129.695724,87.602455 128.086487,87.655327 128.045181,87.834419 
	C127.694542,89.354370 127.394066,90.916283 127.367928,92.470474 
	C127.349144,93.587669 127.773544,94.712326 127.358322,96.139000 
	C124.642914,97.741135 121.927498,99.343269 118.744682,101.143349 
M100.854240,146.018616 
	C104.414452,150.615616 108.492355,154.183899 114.999756,153.310471 
	C114.999756,150.122086 114.600838,147.084518 115.073402,144.189194 
	C116.584503,134.930817 109.328705,131.233566 99.585732,128.595093 
	C99.128242,126.508064 99.038719,124.224304 98.069214,122.411034 
	C97.525650,121.394402 95.116493,120.341042 94.278427,120.761238 
	C93.056419,121.373955 91.842796,123.259636 91.758049,124.670639 
	C91.353867,131.399704 91.133759,138.156021 91.277534,144.893478 
	C91.331406,147.417648 93.280624,148.566910 95.938774,147.517471 
	C97.319115,146.972488 98.717751,146.473801 100.854240,146.018616 
M156.896454,146.015808 
	C157.415848,140.452316 157.935242,134.888809 158.458679,129.281952 
	C146.578918,129.122467 142.141373,136.540192 143.216278,153.344223 
	C149.082153,153.451385 154.474426,150.578842 156.896454,146.015808 
M166.869125,144.712006 
	C166.903336,139.245895 167.165878,133.768967 166.907181,128.316757 
	C166.651337,122.925110 163.861877,120.465874 160.021713,121.168785 
	C160.021713,123.274094 160.022629,125.283730 160.021545,127.293365 
	C160.018661,132.595901 159.825928,137.909332 160.130295,143.194153 
	C160.218018,144.717484 161.452576,146.566513 162.727112,147.450806 
	C163.293823,147.843994 165.263306,146.215408 166.869125,144.712006 
M164.508514,169.190826 
	C164.229935,169.591446 163.951355,169.992065 163.672760,170.392685 
	C164.085419,170.500412 164.498077,170.608124 164.910736,170.715851 
	C164.960419,170.248459 165.010117,169.781082 164.508514,169.190826 
M94.050491,170.682526 
	C93.999985,170.216049 93.949471,169.749588 93.898964,169.283112 
	C93.487656,169.391144 93.076347,169.499191 92.665039,169.607239 
	C92.942764,170.007202 93.220490,170.407166 94.050491,170.682526 
M125.848671,188.694733 
	C125.924896,188.560867 126.001122,188.427002 126.077354,188.293137 
	C125.954437,188.350510 125.831512,188.407898 125.848671,188.694733 
M132.295242,188.522720 
	C132.112335,188.533371 131.929428,188.544006 131.746521,188.554672 
	C131.868729,188.609482 131.990936,188.664291 132.295242,188.522720 
M102.511765,84.443008 
	C102.511765,84.443008 102.551041,84.519287 102.511765,84.443008 
M147.442993,102.488251 
	C147.442993,102.488251 147.519272,102.448997 147.442993,102.488251 
M110.557083,102.511765 
	C110.557083,102.511765 110.480728,102.551102 110.557083,102.511765 
M142.488205,99.557152 
	C142.488205,99.557152 142.448807,99.480721 142.488205,99.557152 
M117.443016,98.488251 
	C117.443016,98.488251 117.519279,98.448990 117.443016,98.488251 
z"/>
<path fill="#C96DB5" opacity="1.000000" stroke="none" 
	d="
M164.982559,86.643776 
	C163.829422,88.284904 162.546448,89.621231 161.263474,90.957558 
	C160.810898,90.632896 160.358307,90.308228 159.905731,89.983566 
	C160.569565,88.517143 161.233383,87.050728 161.969757,85.234589 
	C162.979095,85.369576 163.915909,85.854271 164.982559,86.643776 
z"/>
<path fill="#C96DB5" opacity="1.000000" stroke="none" 
	d="
M87.035873,89.787834 
	C88.195663,90.321526 89.344307,90.872574 90.669998,91.508560 
	C87.799065,93.381775 87.799065,93.381775 86.998817,90.194496 
	C86.997551,89.836235 87.024742,89.805191 87.035873,89.787834 
z"/>
<path fill="#C96DB5" opacity="1.000000" stroke="none" 
	d="
M165.301712,173.846222 
	C165.261978,173.601669 165.505737,173.369995 165.985626,173.036194 
	C166.009583,173.242416 165.797394,173.550766 165.301712,173.846222 
z"/>
<path fill="#000000" opacity="1.000000" stroke="none" 
	d="
M191.998886,135.000000 
	C191.998886,143.460251 191.998886,151.420502 191.998886,159.380753 
	C191.760086,159.378662 191.521301,159.376587 191.282501,159.374496 
	C191.282501,124.861771 191.282501,90.349037 191.282501,55.836308 
	C191.521301,55.833946 191.760086,55.831585 191.998886,55.829227 
	C191.998886,82.052818 191.998886,108.276405 191.998886,135.000000 
z"/>
<path fill="#000000" opacity="1.000000" stroke="none" 
	d="
M100.106918,129.047119 
	C109.328705,131.233566 116.584503,134.930817 115.073402,144.189194 
	C114.600838,147.084518 114.999756,150.122086 114.999756,153.310471 
	C108.492355,154.183899 104.414452,150.615616 100.433929,145.523972 
	C100.044724,139.701920 100.075821,134.374527 100.106918,129.047119 
z"/>
<path fill="#000000" opacity="1.000000" stroke="none" 
	d="
M156.534958,146.228775 
	C154.474426,150.578842 149.082153,153.451385 143.216278,153.344223 
	C142.141373,136.540192 146.578918,129.122467 158.458679,129.281952 
	C157.935242,134.888809 157.415848,140.452316 156.534958,146.228775 
z"/>
<path fill="#000000" opacity="1.000000" stroke="none" 
	d="
M130.001419,113.166443 
	C124.678383,110.449066 119.355354,107.731697 113.464180,104.724289 
	C115.282753,103.516296 116.335251,102.817169 117.984573,101.990112 
	C118.791634,101.556602 119.001869,101.251007 119.212090,100.945412 
	C121.927498,99.343269 124.642914,97.741135 128.010101,96.055893 
	C129.107819,95.926384 129.553757,95.879974 129.999680,95.833572 
	C132.772507,97.498512 135.545349,99.163452 138.762482,101.254166 
	C139.790604,101.825073 140.374420,101.970207 140.958252,102.115341 
	C141.908493,102.862755 142.858749,103.610161 144.122467,104.604118 
	C139.953903,106.947853 136.118134,109.104485 131.843033,111.683121 
	C130.936279,112.458893 130.468842,112.812668 130.001419,113.166443 
z"/>
<path fill="#C96DB5" opacity="1.000000" stroke="none" 
	d="
M99.846329,128.821106 
	C100.075821,134.374527 100.044724,139.701920 100.060875,145.491760 
	C98.717751,146.473801 97.319115,146.972488 95.938774,147.517471 
	C93.280624,148.566910 91.331406,147.417648 91.277534,144.893478 
	C91.133759,138.156021 91.353867,131.399704 91.758049,124.670639 
	C91.842796,123.259636 93.056419,121.373955 94.278427,120.761238 
	C95.116493,120.341042 97.525650,121.394402 98.069214,122.411034 
	C99.038719,124.224304 99.128242,126.508064 99.846329,128.821106 
z"/>
<path fill="#C96DB5" opacity="1.000000" stroke="none" 
	d="
M166.732605,145.108246 
	C165.263306,146.215408 163.293823,147.843994 162.727112,147.450806 
	C161.452576,146.566513 160.218018,144.717484 160.130295,143.194153 
	C159.825928,137.909332 160.018661,132.595901 160.021545,127.293365 
	C160.022629,125.283730 160.021713,123.274094 160.021713,121.168785 
	C163.861877,120.465874 166.651337,122.925110 166.907181,128.316757 
	C167.165878,133.768967 166.903336,139.245895 166.732605,145.108246 
z"/>
<path fill="#C96DB5" opacity="1.000000" stroke="none" 
	d="
M75.166290,105.000633 
	C75.777603,106.681526 76.897415,108.356003 76.918732,110.044342 
	C77.071297,122.130524 76.966972,134.219696 77.026566,146.307526 
	C77.039505,148.932724 77.546684,151.559631 77.492111,154.178802 
	C77.472557,155.117126 76.467094,156.034897 75.467529,156.517578 
	C75.071060,139.048935 75.118675,122.024788 75.166290,105.000633 
z"/>
<path fill="#C96DB5" opacity="1.000000" stroke="none" 
	d="
M182.833664,154.999390 
	C182.223221,153.818405 181.091309,152.641724 181.081558,151.455811 
	C180.960526,136.750641 180.981110,122.044022 181.049942,107.338173 
	C181.054764,106.309425 181.728287,105.283813 182.533783,104.592484 
	C182.929031,121.618607 182.881348,138.309006 182.833664,154.999390 
z"/>
<path fill="#C96DB5" opacity="1.000000" stroke="none" 
	d="
M117.109299,136.048019 
	C117.496208,134.858490 117.883110,133.668945 118.270012,132.479416 
	C119.116470,133.206436 120.704727,133.943283 120.695251,134.658981 
	C120.594528,142.269455 120.311699,149.880798 119.863388,157.479187 
	C119.808502,158.409424 118.493164,159.265289 117.689026,159.973511 
	C117.447159,151.876923 117.278229,143.962479 117.109299,136.048019 
z"/>
<path fill="#000000" opacity="1.000000" stroke="none" 
	d="
M75.093544,104.632507 
	C75.118675,122.024788 75.071060,139.048935 75.094986,156.537018 
	C74.779808,156.734070 74.055397,156.468216 74.054588,156.200195 
	C74.001297,138.392365 74.006378,120.584343 74.848778,102.703644 
	C74.906120,103.223892 74.963455,103.744133 75.093544,104.632507 
z"/>
<path fill="#000000" opacity="1.000000" stroke="none" 
	d="
M182.906433,155.367523 
	C182.881348,138.309006 182.929031,121.618607 182.905273,104.464371 
	C182.961548,103.524963 183.089279,103.049400 183.615829,101.088974 
	C183.615829,120.787338 183.615829,139.003159 183.615829,157.218979 
	C183.461960,157.245331 183.308105,157.271698 183.154236,157.298065 
	C183.095886,156.777267 183.037537,156.256454 182.906433,155.367523 
z"/>
<path fill="#C96DB5" opacity="1.000000" stroke="none" 
	d="
M141.033035,159.994217 
	C140.028519,158.962921 138.195312,157.963669 138.154022,156.895157 
	C137.887161,149.989380 137.959778,143.067673 138.067108,136.153458 
	C138.081879,135.202087 138.905487,134.263260 139.354630,133.318619 
	C139.887573,133.995712 140.420517,134.672806 140.563461,135.907761 
	C140.115448,141.865356 139.945435,147.267273 140.049805,152.663864 
	C140.097153,155.112747 140.688477,157.551086 141.033035,159.994217 
z"/>
<path fill="#000000" opacity="1.000000" stroke="none" 
	d="
M141.130737,159.910080 
	C140.688477,157.551086 140.097153,155.112747 140.049805,152.663864 
	C139.945435,147.267273 140.115448,141.865356 140.566559,136.291077 
	C140.973236,142.259567 140.971115,148.402710 141.010345,154.545578 
	C141.021591,156.306091 141.152435,158.065842 141.130737,159.910080 
z"/>
<path fill="#000000" opacity="1.000000" stroke="none" 
	d="
M117.062302,136.511414 
	C117.278229,143.962479 117.447159,151.876923 117.222328,159.856674 
	C116.367134,159.499619 115.483109,159.051666 115.506905,158.658722 
	C115.944977,151.426834 116.491623,144.201523 117.062302,136.511414 
z"/>
<path fill="#C96DB5" opacity="1.000000" stroke="none" 
	d="
M130.013962,95.445129 
	C129.553757,95.879974 129.107819,95.926384 128.331070,95.903221 
	C127.773544,94.712326 127.349144,93.587669 127.367928,92.470474 
	C127.394066,90.916283 127.694542,89.354370 128.045181,87.834419 
	C128.086487,87.655327 129.695724,87.602455 129.715500,87.688728 
	C130.091873,89.331314 130.436768,90.995872 130.568741,92.673141 
	C130.629776,93.448677 130.222946,94.261024 130.013962,95.445129 
z"/>
<path fill="#C96DB5" opacity="1.000000" stroke="none" 
	d="
M130.002625,113.512627 
	C130.468842,112.812668 130.936279,112.458893 131.680405,111.995651 
	C131.917892,113.392822 131.878677,114.899460 131.839462,116.406097 
	C131.227585,115.556999 130.615707,114.707901 130.002625,113.512627 
z"/>
<path fill="#C96DB5" opacity="1.000000" stroke="none" 
	d="
M140.968079,101.742424 
	C140.374420,101.970207 139.790604,101.825073 139.084930,101.400543 
	C139.050049,100.055344 139.136993,98.989555 139.223953,97.923759 
	C139.570435,97.876579 139.916916,97.829399 140.263397,97.782219 
	C140.501572,98.977982 140.739731,100.173744 140.968079,101.742424 
z"/>
<path fill="#C96DB5" opacity="1.000000" stroke="none" 
	d="
M164.784149,169.252258 
	C165.010117,169.781082 164.960419,170.248459 164.910736,170.715851 
	C164.498077,170.608124 164.085419,170.500412 163.672760,170.392685 
	C163.951355,169.992065 164.229935,169.591446 164.784149,169.252258 
z"/>
<path fill="#C96DB5" opacity="1.000000" stroke="none" 
	d="
M93.774353,170.744827 
	C93.220490,170.407166 92.942764,170.007202 92.665039,169.607239 
	C93.076347,169.499191 93.487656,169.391144 93.898956,169.283112 
	C93.949471,169.749588 93.999985,170.216049 93.774353,170.744827 
z"/>
<path fill="#C96DB5" opacity="1.000000" stroke="none" 
	d="
M125.778633,188.580002 
	C125.831512,188.407898 125.954437,188.350510 126.077347,188.293137 
	C126.001122,188.427002 125.924896,188.560867 125.778633,188.580002 
z"/>
<path fill="#C96DB5" opacity="1.000000" stroke="none" 
	d="
M132.204193,188.620911 
	C131.990936,188.664291 131.868729,188.609482 131.746521,188.554657 
	C131.929428,188.544006 132.112335,188.533371 132.204193,188.620911 
z"/>
<path fill="#C96DB5" opacity="1.000000" stroke="none" 
	d="
M102.531403,84.481148 
	C102.551041,84.519287 102.511765,84.443008 102.531403,84.481148 
z"/>
<path fill="#C96DB5" opacity="1.000000" stroke="none" 
	d="
M147.481140,102.468628 
	C147.519272,102.448997 147.442993,102.488251 147.481140,102.468628 
z"/>
<path fill="#C96DB5" opacity="1.000000" stroke="none" 
	d="
M110.518906,102.531433 
	C110.480728,102.551102 110.557083,102.511765 110.518906,102.531433 
z"/>
<path fill="#C96DB5" opacity="1.000000" stroke="none" 
	d="
M118.978394,101.044388 
	C119.001869,101.251007 118.791634,101.556602 118.300079,101.847855 
	C118.260727,101.603455 118.502701,101.373398 118.978394,101.044388 
z"/>
<path fill="#C96DB5" opacity="1.000000" stroke="none" 
	d="
M142.468506,99.518936 
	C142.448807,99.480721 142.488205,99.557152 142.468506,99.518936 
z"/>
<path fill="#C96DB5" opacity="1.000000" stroke="none" 
	d="
M117.481148,98.468620 
	C117.519279,98.448990 117.443016,98.488251 117.481148,98.468620 
z"/>
<path fill="#C96DB5" opacity="1.000000" stroke="none" 
	d="
M170.002075,92.997208 
	C170.002075,92.997208 170.410110,93.246902 170.410110,93.246902 
	C170.410110,93.246902 170.098846,93.232574 170.049423,93.116287 
	C170.000000,93.000000 170.002075,92.997208 170.002075,92.997208 
z"/>
<path fill="#C96DB5" opacity="1.000000" stroke="none" 
	d="
M169.998596,93.001068 
	C169.997177,93.002129 169.590179,92.752968 169.590179,92.752968 
	C169.590179,92.752968 169.900299,92.767570 169.951187,92.882385 
	C170.002075,92.997208 170.000000,93.000000 169.998596,93.001068 
z"/>
</svg>